<svg width="24" height="24" viewBox="0 0 24 24" fill="none" xmlns="http://www.w3.org/2000/svg">
<path d="M21.0999 8.87501L12.6999 17.3C12.5999 17.4 12.4916 17.4707 12.3749 17.512C12.2582 17.554 12.1332 17.575 11.9999 17.575C11.8666 17.575 11.7416 17.554 11.6249 17.512C11.5082 17.4707 11.3999 17.4 11.2999 17.3L2.8749 8.87501C2.64157 8.64168 2.5249 8.35001 2.5249 8.00001C2.5249 7.65001 2.6499 7.35001 2.8999 7.10001C3.1499 6.85001 3.44157 6.72501 3.7749 6.72501C4.10824 6.72501 4.3999 6.85001 4.6499 7.10001L11.9999 14.45L19.3499 7.10001C19.5832 6.86668 19.8706 6.75001 20.2119 6.75001C20.5539 6.75001 20.8499 6.87501 21.0999 7.12501C21.3499 7.37501 21.4749 7.66668 21.4749 8.00001C21.4749 8.33334 21.3499 8.62501 21.0999 8.87501Z" fill="#10284F"/>
</svg>
