<svg width="73" height="73" viewBox="0 0 73 73" fill="none" xmlns="http://www.w3.org/2000/svg">
<path d="M59.3125 13.6875C57.295 13.6935 55.3365 14.3686 53.7438 15.6071C52.1511 16.8456 51.0143 18.5774 50.5115 20.5313H40.9028C40.4775 17.144 39.1101 13.9441 36.9562 11.2955C34.8023 8.64689 31.9484 6.65586 28.719 5.54886C25.4896 4.44187 22.0144 4.26334 18.6886 5.03358C15.3628 5.80381 12.3198 7.49191 9.90586 9.90586C7.49191 12.3198 5.80381 15.3628 5.03358 18.6886C4.26334 22.0144 4.44187 25.4896 5.54886 28.719C6.65586 31.9484 8.64689 34.8023 11.2955 36.9562C13.9441 39.1101 17.144 40.4775 20.5313 40.9028V50.5115C18.3808 51.0667 16.5067 52.3872 15.2602 54.2253C14.0137 56.0635 13.4804 58.2932 13.7602 60.4965C14.0401 62.6998 15.1139 64.7253 16.7804 66.1935C18.4468 67.6617 20.5916 68.4717 22.8125 68.4717C25.0335 68.4717 27.1782 67.6617 28.8447 66.1935C30.5111 64.7253 31.5849 62.6998 31.8648 60.4965C32.1446 58.2932 31.6113 56.0635 30.3648 54.2253C29.1183 52.3872 27.2442 51.0667 25.0938 50.5115V40.9051C28.3367 40.4969 31.4091 39.2201 33.9861 37.2095L42.356 45.5817C41.518 46.9725 41.0711 48.5638 41.0625 50.1875C41.0625 51.9923 41.5977 53.7565 42.6004 55.2571C43.603 56.7577 45.0282 57.9273 46.6955 58.6179C48.3629 59.3086 50.1976 59.4893 51.9677 59.1372C53.7378 58.7851 55.3637 57.916 56.6399 56.6399C57.916 55.3637 58.7851 53.7378 59.1372 51.9677C59.4893 50.1976 59.3086 48.3629 58.6179 46.6955C57.9273 45.0282 56.7577 43.603 55.2571 42.6004C53.7565 41.5977 51.9923 41.0625 50.1875 41.0625C48.5638 41.071 46.9725 41.5179 45.5817 42.356L37.2095 33.9838C39.2206 31.4078 40.4983 28.3362 40.9074 25.0938H50.5137C50.9433 26.7422 51.8266 28.2371 53.0632 29.4088C54.2997 30.5804 55.8401 31.3819 57.5092 31.7221C59.1784 32.0623 60.9095 31.9276 62.506 31.3333C64.1025 30.7391 65.5003 29.709 66.5408 28.3602C67.5813 27.0114 68.2227 25.3979 68.3922 23.7028C68.5617 22.0078 68.2524 20.2992 67.4996 18.7711C66.7468 17.2429 65.5806 15.9565 64.1334 15.0579C62.6862 14.1593 61.016 13.6846 59.3125 13.6875ZM27.375 59.3125C27.375 60.2149 27.1074 61.097 26.6061 61.8473C26.1048 62.5976 25.3922 63.1824 24.5585 63.5277C23.7248 63.873 22.8075 63.9634 21.9224 63.7874C21.0374 63.6113 20.2244 63.1768 19.5863 62.5387C18.9483 61.9006 18.5137 61.0877 18.3377 60.2026C18.1616 59.3176 18.252 58.4002 18.5973 57.5665C18.9426 56.7328 19.5274 56.0203 20.2777 55.5189C21.028 55.0176 21.9101 54.75 22.8125 54.75C24.0222 54.7512 25.182 55.2323 26.0374 56.0877C26.8927 56.943 27.3738 58.1028 27.375 59.3125ZM22.8125 36.5C20.1054 36.5 17.459 35.6973 15.2082 34.1933C12.9573 32.6893 11.2029 30.5516 10.1669 28.0505C9.13094 25.5494 8.85988 22.7973 9.38802 20.1422C9.91615 17.4871 11.2198 15.0482 13.134 13.134C15.0482 11.2198 17.4871 9.91615 20.1422 9.38802C22.7973 8.85988 25.5494 9.13094 28.0505 10.1669C30.5516 11.2029 32.6893 12.9573 34.1933 15.2082C35.6973 17.459 36.5 20.1054 36.5 22.8125C36.4958 26.4414 35.0524 29.9204 32.4864 32.4864C29.9204 35.0524 26.4414 36.4958 22.8125 36.5ZM54.75 50.1875C54.75 51.0899 54.4824 51.972 53.9811 52.7223C53.4798 53.4726 52.7672 54.0574 51.9335 54.4027C51.0998 54.748 50.1825 54.8384 49.2974 54.6624C48.4124 54.4863 47.5994 54.0518 46.9613 53.4137C46.3233 52.7756 45.8887 51.9627 45.7127 51.0776C45.5366 50.1926 45.627 49.2752 45.9723 48.4415C46.3176 47.6078 46.9024 46.8953 47.6527 46.3939C48.403 45.8926 49.2851 45.625 50.1875 45.625C51.3972 45.6262 52.557 46.1073 53.4124 46.9627C54.2677 47.818 54.7488 48.9778 54.75 50.1875ZM59.3125 27.375C58.4101 27.375 57.528 27.1074 56.7777 26.6061C56.0274 26.1048 55.4426 25.3922 55.0973 24.5585C54.752 23.7248 54.6616 22.8075 54.8377 21.9224C55.0137 21.0374 55.4483 20.2244 56.0863 19.5863C56.7244 18.9483 57.5374 18.5137 58.4224 18.3377C59.3075 18.1616 60.2248 18.252 61.0585 18.5973C61.8922 18.9426 62.6048 19.5274 63.1061 20.2777C63.6074 21.028 63.875 21.9101 63.875 22.8125C63.8738 24.0222 63.3927 25.182 62.5374 26.0374C61.682 26.8927 60.5222 27.3738 59.3125 27.375Z" fill="#10284F"/>
</svg>
