<svg width="12" height="13" viewBox="0 0 12 13" fill="none" xmlns="http://www.w3.org/2000/svg">
<path d="M1.26316 13C0.915789 13 0.618526 12.8728 0.371368 12.6184C0.123789 12.3636 0 12.0575 0 11.7V1.3C0 0.9425 0.123789 0.63635 0.371368 0.38155C0.618526 0.127183 0.915789 0 1.26316 0H6.31579L10.1053 3.9V5.915L5.05263 11.0988V13H1.26316ZM6.31579 13V11.6187L9.56842 8.255L10.9263 9.62L7.65789 13H6.31579ZM11.3842 9.165L10.0421 7.78375L10.4842 7.32875C10.6105 7.19875 10.7632 7.13375 10.9421 7.13375C11.1211 7.13375 11.2684 7.19875 11.3842 7.32875L11.8263 7.8C11.9421 7.93 12 8.08427 12 8.2628C12 8.44177 11.9421 8.59083 11.8263 8.71L11.3842 9.165ZM5.68421 4.55H8.8421L5.68421 1.3V4.55Z" fill="#10284F"/>
</svg>
