<svg width="30" height="31" viewBox="0 0 30 31" fill="none" xmlns="http://www.w3.org/2000/svg">
<path d="M23.75 17.8965V9.75261L17.5 5.36744L11.25 9.75261V11.632H8.75V8.4997L17.5 2.23517L26.25 8.4997V17.8965H23.75ZM18.125 10.3791H19.375V9.12616H18.125V10.3791ZM15.625 10.3791H16.875V9.12616H15.625V10.3791ZM18.125 12.8849H19.375V11.632H18.125V12.8849ZM15.625 12.8849H16.875V11.632H15.625V12.8849ZM17.5 28.5462L8.75 26.103V27.9198H1.25V14.1378H11.1875L18.9375 17.0195C19.625 17.2701 20.1825 17.7086 20.61 18.335C21.0367 18.9615 21.25 19.6506 21.25 20.4023H23.75C24.7917 20.4023 25.6771 20.7469 26.4062 21.436C27.1354 22.1251 27.5 23.0334 27.5 24.161V25.4139L17.5 28.5462ZM3.75 25.4139H6.25V16.6436H3.75V25.4139ZM17.4375 25.9151L24.875 23.5972C24.8125 23.3675 24.6717 23.195 24.4525 23.0798C24.2342 22.9653 24 22.9081 23.75 22.9081H17.75C17.1042 22.9081 16.5208 22.8664 16 22.7828C15.4792 22.6993 14.9167 22.5531 14.3125 22.3443L12.1563 21.5926L12.875 19.2121L15.375 20.0264C15.75 20.1517 16.1875 20.2457 16.6875 20.3084C17.1875 20.371 17.875 20.4023 18.75 20.4023C18.75 20.1726 18.6825 19.9534 18.5475 19.7445C18.4117 19.5357 18.25 19.4 18.0625 19.3373L10.75 16.6436H8.75V23.5346L17.4375 25.9151Z" fill="#10284F"/>
</svg>
