<svg width="27" height="27" viewBox="0 0 27 27" fill="none" xmlns="http://www.w3.org/2000/svg">
<g clip-path="url(#clip0_145_61)">
<path d="M9 12.375C10.4918 12.375 11.9226 11.7824 12.9775 10.7275C14.0324 9.67258 14.625 8.24184 14.625 6.75C14.625 5.25816 14.0324 3.82742 12.9775 2.77252C11.9226 1.71763 10.4918 1.125 9 1.125C7.50816 1.125 6.07742 1.71763 5.02252 2.77252C3.96763 3.82742 3.375 5.25816 3.375 6.75C3.375 8.24184 3.96763 9.67258 5.02252 10.7275C6.07742 11.7824 7.50816 12.375 9 12.375ZM9 12.375C11.2646 12.375 13.2435 13.23 14.6509 14.6509C15.4854 15.4967 16.1097 16.5268 16.4734 17.658M9 12.375C4.5 12.375 1.125 15.75 1.125 20.25V25.875H12.375M13.5 21.177L18.2138 24.75L25.875 14.625" stroke="#10284F" stroke-width="2"/>
</g>
<defs>
<clipPath id="clip0_145_61">
<rect width="27" height="27" fill="white"/>
</clipPath>
</defs>
</svg>
