<svg xmlns="http://www.w3.org/2000/svg" width="100" height="100" viewBox="0 0 100 100">
  <defs>
    <style>
      .cls-1 {
        fill: none;
        stroke: #10284f;
        stroke-width: 2px;
        fill-rule: evenodd;
      }
    </style>
  </defs>
  <path id="Rectángulo_3" data-name="Rectángulo 3" class="cls-1" d="M84,47c2.937,0.794,4.3-.583,5.078,3.186-0.038,6.458-6.9,4.219-7.119,5.794-0.085.6,6.726-.313,7.041,4.019,0.335,6.071-7.281,4.561-8.725,5.757C80,67.155,87,65.143,87,70c0,4.019-2.029,8.558-46,7-1.93-3.19-6-4-6-4s1.886-29.738-1-32c7.41,1.872,14.568-11.008,18-16,0.985,0.025.312-8.916,0-15C53.373,8.1,69.814-4.241,63,34c-1.009,5.664,24.233,1.828,26.032,3.778C91.181,41.742,92.356,45,84,47ZM34.129,71.091a6,6,0,0,1-6,6H14.871a6,6,0,0,1-6-6V44.909a6,6,0,0,1,6-6H28.129a6,6,0,0,1,6,6V71.091Z"/>
</svg>
