<svg xmlns="http://www.w3.org/2000/svg" width="100" height="100" viewBox="0 0 100 100">
  <defs>
    <style>
      .cls-1 {
        fill: #10284f;
        fill-rule: evenodd;
      }
    </style>
  </defs>
  <path id="Rectángulo_3_copia" data-name="Rectángulo 3 copia" class="cls-1" d="M84,47c-2.2.952,4.3-.583,5.078,3.186-0.038,6.458-6.9,4.219-7.119,5.794-0.085.6,6.726-.313,7.041,4.019,0.335,6.071-7.281,4.561-8.725,5.757C80,67.155,87,65.143,87,70c0,4.019-2.029,8.558-46,7-1.93-3.19-6-4-6-4s1.886-29.738-1-32c7.41,1.872,14.568-9.008,18-14,0.985,0.025,4.312-7.916,4-14,1.373-1.9,14.814-17.241,8,21-1.009,5.664,23.233,1.828,25.032,3.778C91.181,41.742,93.305,45.2,84,47ZM34.129,71.091a6,6,0,0,1-6,6H14.871a6,6,0,0,1-6-6V44.909a6,6,0,0,1,6-6H28.129a6,6,0,0,1,6,6V71.091Z"/>
</svg>
