<svg width="42" height="43" viewBox="0 0 42 43" fill="none" xmlns="http://www.w3.org/2000/svg">
<path d="M38.0625 9.55536H3.9375C3.24131 9.55536 2.57363 9.83256 2.08134 10.326C1.58906 10.8194 1.3125 11.4887 1.3125 12.1865V30.6042C1.3125 31.302 1.58906 31.9712 2.08134 32.4647C2.57363 32.9581 3.24131 33.2353 3.9375 33.2353H38.0625C38.7587 33.2353 39.4264 32.9581 39.9187 32.4647C40.4109 31.9712 40.6875 31.302 40.6875 30.6042V12.1865C40.6875 11.4887 40.4109 10.8194 39.9187 10.326C39.4264 9.83256 38.7587 9.55536 38.0625 9.55536ZM13.6172 30.6042L3.9375 22.1189V20.6718L13.6172 12.1865H28.3828L38.0625 20.6718V22.1189L28.3828 30.6042H13.6172ZM38.0625 17.1856L32.3695 12.1865H38.0625V17.1856ZM9.63047 12.1865L3.9375 17.1856V12.1865H9.63047ZM3.9375 25.6051L9.63047 30.6042H3.9375V25.6051ZM38.0625 30.6042H32.3695L38.0625 25.6051V30.6042ZM21 14.8176C19.7021 14.8176 18.4333 15.2033 17.3541 15.9261C16.2749 16.6489 15.4337 17.6762 14.937 18.8781C14.4403 20.0801 14.3104 21.4026 14.5636 22.6786C14.8168 23.9545 15.4418 25.1266 16.3596 26.0465C17.2774 26.9664 18.4467 27.5929 19.7197 27.8467C20.9927 28.1005 22.3122 27.9702 23.5114 27.4724C24.7105 26.9745 25.7354 26.1314 26.4565 25.0497C27.1776 23.968 27.5625 22.6963 27.5625 21.3953C27.5625 19.6508 26.8711 17.9777 25.6404 16.7442C24.4097 15.5106 22.7405 14.8176 21 14.8176ZM21 25.342C20.2212 25.342 19.46 25.1105 18.8124 24.6769C18.1649 24.2432 17.6602 23.6268 17.3622 22.9057C17.0642 22.1845 16.9862 21.391 17.1382 20.6254C17.2901 19.8598 17.6651 19.1566 18.2158 18.6046C18.7664 18.0527 19.468 17.6768 20.2318 17.5245C20.9956 17.3722 21.7873 17.4504 22.5068 17.7491C23.2263 18.0478 23.8413 18.5537 24.2739 19.2027C24.7066 19.8517 24.9375 20.6148 24.9375 21.3953C24.9332 22.4407 24.517 23.442 23.7795 24.1813C23.042 24.9205 22.043 25.3377 21 25.342Z" fill="#10284F"/>
</svg>
