<svg width="18" height="17" viewBox="0 0 18 17" fill="none" xmlns="http://www.w3.org/2000/svg">
<path d="M17.4128 8.94868C17.7908 8.49073 18 7.92963 18 7.34584C18 6.41962 17.4353 5.54291 16.5263 5.05401C16.2922 4.92816 16.0258 4.86193 15.7545 4.86216H10.359L10.494 2.32692C10.5255 1.71425 10.2893 1.13252 9.83025 0.689009C9.60499 0.470404 9.33323 0.296474 9.03176 0.177968C8.73029 0.0594615 8.40551 -0.00110365 8.0775 1.52242e-05C6.9075 1.52242e-05 5.8725 0.722014 5.562 1.7555L3.62925 8.17098H0.72C0.32175 8.17098 0 8.46597 0 8.8311V16.3399C0 16.705 0.32175 17 0.72 17H14.2493C14.4563 17 14.6588 16.9629 14.8455 16.8886C15.9165 16.4698 16.6073 15.5106 16.6073 14.4462C16.6073 14.1863 16.5668 13.9305 16.4858 13.6829C16.8638 13.225 17.073 12.6639 17.073 12.0801C17.073 11.8202 17.0325 11.5644 16.9515 11.3168C17.3295 10.8589 17.5388 10.2978 17.5388 9.714C17.5343 9.45408 17.4938 9.19622 17.4128 8.94868ZM1.62 15.5147V9.65624H3.4425V15.5147H1.62ZM15.939 8.23287L15.4463 8.62481L15.759 9.14878C15.862 9.32138 15.9155 9.51518 15.9143 9.71194C15.9143 10.0523 15.7523 10.3762 15.4733 10.599L14.9805 10.9909L15.2933 11.5149C15.3963 11.6875 15.4497 11.8813 15.4485 12.078C15.4485 12.4184 15.2865 12.7423 15.0075 12.9651L14.5148 13.357L14.8275 13.881C14.9305 14.0536 14.984 14.2474 14.9828 14.4441C14.9828 14.9062 14.6858 15.3229 14.2268 15.5127H4.8825V9.59023L7.12125 2.15364C7.17898 1.96303 7.3029 1.79487 7.47424 1.67463C7.64558 1.5544 7.85499 1.48864 8.07075 1.48733C8.24175 1.48733 8.4105 1.53272 8.5455 1.62554C8.76825 1.7782 8.8875 2.00924 8.874 2.25472L8.658 6.34742H15.732C16.1325 6.57227 16.38 6.95184 16.38 7.34584C16.38 7.68621 16.218 8.00802 15.939 8.23287Z" fill="black"/>
</svg>
