<svg width="28" height="28" viewBox="0 0 28 28" fill="none" xmlns="http://www.w3.org/2000/svg">
<path d="M14 15.1667L4.66665 9.33332V21H15.1666V23.3333H4.66665C4.02498 23.3333 3.47587 23.105 3.01931 22.6485C2.56198 22.1912 2.33331 21.6417 2.33331 21V6.99999C2.33331 6.35832 2.56198 5.80921 3.01931 5.35266C3.47587 4.89532 4.02498 4.66666 4.66665 4.66666H23.3333C23.975 4.66666 24.5245 4.89532 24.9818 5.35266C25.4384 5.80921 25.6666 6.35832 25.6666 6.99999V15.1667H23.3333V9.33332L14 15.1667ZM14 12.8333L23.3333 6.99999H4.66665L14 12.8333ZM22.1666 26.8333L20.5333 25.2L22.3708 23.3333H17.5V21H22.3708L20.5041 19.1333L22.1666 17.5L26.8333 22.1667L22.1666 26.8333ZM4.66665 9.33332V22.1667V15.1667V15.2542V6.99999V9.33332Z" fill="black"/>
</svg>
