<svg width="113" height="113" viewBox="0 0 113 113" fill="none" xmlns="http://www.w3.org/2000/svg">
<path d="M14.125 28.25H98.875V84.75H14.125V28.25ZM56.5 42.375C60.2462 42.375 63.8389 43.8632 66.4879 46.5121C69.1368 49.1611 70.625 52.7538 70.625 56.5C70.625 60.2462 69.1368 63.8389 66.4879 66.4879C63.8389 69.1368 60.2462 70.625 56.5 70.625C52.7538 70.625 49.1611 69.1368 46.5121 66.4879C43.8632 63.8389 42.375 60.2462 42.375 56.5C42.375 52.7538 43.8632 49.1611 46.5121 46.5121C49.1611 43.8632 52.7538 42.375 56.5 42.375ZM32.9583 37.6667C32.9583 40.1641 31.9662 42.5593 30.2003 44.3253C28.4343 46.0912 26.0391 47.0833 23.5417 47.0833V65.9167C26.0391 65.9167 28.4343 66.9088 30.2003 68.6747C31.9662 70.4407 32.9583 72.8359 32.9583 75.3333H80.0417C80.0417 72.8359 81.0338 70.4407 82.7998 68.6747C84.5657 66.9088 86.9609 65.9167 89.4583 65.9167V47.0833C86.9609 47.0833 84.5657 46.0912 82.7998 44.3253C81.0338 42.5593 80.0417 40.1641 80.0417 37.6667H32.9583Z" fill="#10284F"/>
</svg>
