<svg id="Person" xmlns="http://www.w3.org/2000/svg" width="100" height="100" viewBox="0 0 100 100">
  <defs>
    <style>
      .cls-1 {
        fill: #fff;
      }

      .cls-2 {
        fill: #10284f;
        fill-rule: evenodd;
      }
    </style>
  </defs>
  <circle id="Elipse_1_copia" data-name="Elipse 1 copia" class="cls-1" cx="50.047" cy="50.047" r="49.734"/>
  <path id="Man_1" data-name="Man 1" class="cls-2" d="M85.878,84.537a6.994,6.994,0,0,1-.616.548C85.763,84.407,86,84,86,84s0.757-13.6.757-9.129c0-9.338.618-8.442,0-14.282-2.367-7.145-7.1-9.524-11.842-9.524H53.6c-9.518,0-14.138-.029-23.613-0.029-4.733,0-7.819-.312-11.333,2.895-4.793,5.459-4.313,5.936-4.313,21.173a76.936,76.936,0,0,0,.532,10.078c-0.065-.061-0.133-0.1-0.2-0.17A49.736,49.736,0,1,1,85.878,84.537ZM49.9,10.557c-9.471,0-18.893,9.929-18.893,19.449S39.964,48.3,49.436,48.3s19.127-9,19.127-18.519S59.374,10.557,49.9,10.557Z"/>
</svg>
