<svg width="11" height="12" viewBox="0 0 11 12" fill="none" xmlns="http://www.w3.org/2000/svg">
<path d="M7.94444 9V7.2H3.66667V4.8H7.94444V3L11 6L7.94444 9ZM6.72222 0C7.04638 0 7.35725 0.126428 7.58646 0.351472C7.81567 0.576515 7.94444 0.88174 7.94444 1.2V2.4H6.72222V1.2H1.22222V10.8H6.72222V9.6H7.94444V10.8C7.94444 11.1183 7.81567 11.4235 7.58646 11.6485C7.35725 11.8736 7.04638 12 6.72222 12H1.22222C0.898069 12 0.587192 11.8736 0.357981 11.6485C0.128769 11.4235 0 11.1183 0 10.8V1.2C0 0.88174 0.128769 0.576515 0.357981 0.351472C0.587192 0.126428 0.898069 0 1.22222 0H6.72222Z" fill="#10284F"/>
</svg>
