<svg xmlns="http://www.w3.org/2000/svg" width="100" height="100" viewBox="0 0 100 100">
  <defs>
    <style>
      .cls-1 {
        fill: #10284f;
        fill-rule: evenodd;
      }
    </style>
  </defs>
  <path id="Rectángulo_4_copia" data-name="Rectángulo 4 copia" class="cls-1" d="M27.394,26.984H72.606c4,0,2.25,3.246,2.25,7.25L71.749,78.766a7.25,7.25,0,0,1-7.25,7.25H36.537a7.25,7.25,0,0,1-7.25-7.25L25.145,34.234C25.145,30.23,23.39,26.984,27.394,26.984Zm7.82,2.952H64.786A6.016,6.016,0,0,1,70.8,35.952l-2.578,41.1a6.016,6.016,0,0,1-6.016,6.016H38.652a6.016,6.016,0,0,1-6.016-6.016L29.2,35.952A6.016,6.016,0,0,1,35.214,29.936Z"/>
  <path id="Rectángulo_5" data-name="Rectángulo 5" class="cls-1" d="M71.457,25.881L27.477,25.6c-2.962-.019-6.516.7-6.491-2.016s1.464-6.872,4.426-6.853l13.954-.895c0.025-2.717,4.847-4.889,10.772-4.851s10.707,2.271,10.682,4.988L73.683,17.04c2.962,0.019,5.326,4.2,5.3,6.922S74.419,25.9,71.457,25.881ZM49.993,13C56.574,13,58,17,58,17H42S43.421,13,49.993,13Z"/>
  <path id="Rectángulo_5_copia_2" data-name="Rectángulo 5 copia 2" class="cls-1" d="M35,35.414l4.043-.425,3.642,42.6-4.043.425Zm29.007,0-4.043-.425-3.642,42.6,4.043,0.425Zm-11.888-.3L48.054,35.1,47.9,77.885,51.961,77.9Z"/>
</svg>
