<svg width="46" height="47" viewBox="0 0 46 47" fill="none" xmlns="http://www.w3.org/2000/svg">
<path d="M23 40.42C17.25 40.42 12.167 37.412 9.2 32.9C9.269 28.2 18.4 25.615 23 25.615C27.6 25.615 36.731 28.2 36.8 32.9C35.2794 35.2134 33.2255 37.1092 30.819 38.4206C28.4125 39.7319 25.7273 40.4186 23 40.42ZM23 7.05C24.83 7.05 26.585 7.79277 27.879 9.1149C29.173 10.437 29.9 12.2302 29.9 14.1C29.9 15.9698 29.173 17.763 27.879 19.0851C26.585 20.4072 24.83 21.15 23 21.15C21.17 21.15 19.415 20.4072 18.121 19.0851C16.827 17.763 16.1 15.9698 16.1 14.1C16.1 12.2302 16.827 10.437 18.121 9.1149C19.415 7.79277 21.17 7.05 23 7.05ZM23 0C19.9796 0 16.9888 0.607846 14.1983 1.78883C11.4078 2.96982 8.87229 4.70081 6.73654 6.88299C2.42321 11.2901 0 17.2674 0 23.5C0 29.7326 2.42321 35.7099 6.73654 40.117C8.87229 42.2992 11.4078 44.0302 14.1983 45.2112C16.9888 46.3922 19.9796 47 23 47C29.1 47 34.9501 44.5241 39.2635 40.117C43.5768 35.7099 46 29.7326 46 23.5C46 10.5045 35.65 0 23 0Z" fill="#10284F"/>
</svg>
